# xmcd CD database file
#
# Track frame offsets:
#	150
#	16303
#	47838
#	63932
#	80728
#	99624
#	116500
#	139526
#	160767
#	176617
#
# Disc length: 2567 seconds
#
# Revision: 0
# Processed by: cddbd v1.4PL0 Copyright (c) Steve Scherf et al.
# Submitted via: Feurio! 1.65 - http://www.feurio.com
#
DISCID=7c0a050a
DTITLE=Ronny D - Blues Demon
DYEAR=1998
DGENRE=blues
TTITLE0=Swear To Tell The Truth
TTITLE1=I'm Your Main Man
TTITLE2=Green Onions
TTITLE3=Just The Wind
TTITLE4=My Baby
TTITLE5=Don't Let My Baby Ride
TTITLE6=Take It Easy Baby
TTITLE7=Freeway Romancer
TTITLE8=The Pump
TTITLE9=Long Tall Sally
EXTD=Blue Wave, 1998
EXTT0=
EXTT1=
EXTT2=
EXTT3=
EXTT4=
EXTT5=
EXTT6=
EXTT7=
EXTT8=
EXTT9=
PLAYORDER=
